<svg width="1920" height="1080" viewBox="0 0 1920 1080" fill="none" xmlns="http://www.w3.org/2000/svg">
<g clip-path="url(#clip0_207_2)">
<rect width="1920" height="1080" fill="url(#paint0_linear_207_2)"/>
<g filter="url(#filter0_f_207_2)">
<path d="M816 1056C816 1223.89 599.025 1360 472 1360C344.975 1360 242 1223.89 242 1056C242 888.105 344.975 752 472 752C599.025 752 816 888.105 816 1056Z" fill="url(#paint1_linear_207_2)"/>
</g>
<g filter="url(#filter1_f_207_2)">
<path d="M1743 -84C1743 83.8945 1278.05 220 1005.86 220C733.66 220 513 83.8945 513 -84C513 -251.895 733.66 -388 1005.86 -388C1278.05 -388 1743 -251.895 1743 -84Z" fill="url(#paint2_linear_207_2)"/>
</g>
<g filter="url(#filter2_f_207_2)">
<path d="M2166 39C2166 206.895 1949.03 343 1822 343C1694.97 343 1592 206.895 1592 39C1592 -128.895 1694.97 -265 1822 -265C1949.03 -265 2166 -128.895 2166 39Z" fill="url(#paint3_linear_207_2)"/>
</g>
</g>
<defs>
<filter id="filter0_f_207_2" x="-15.7" y="494.3" width="1089.4" height="1123.4" filterUnits="userSpaceOnUse" color-interpolation-filters="sRGB">
<feFlood flood-opacity="0" result="BackgroundImageFix"/>
<feBlend mode="normal" in="SourceGraphic" in2="BackgroundImageFix" result="shape"/>
<feGaussianBlur stdDeviation="128.85" result="effect1_foregroundBlur_207_2"/>
</filter>
<filter id="filter1_f_207_2" x="255.3" y="-645.7" width="1745.4" height="1123.4" filterUnits="userSpaceOnUse" color-interpolation-filters="sRGB">
<feFlood flood-opacity="0" result="BackgroundImageFix"/>
<feBlend mode="normal" in="SourceGraphic" in2="BackgroundImageFix" result="shape"/>
<feGaussianBlur stdDeviation="128.85" result="effect1_foregroundBlur_207_2"/>
</filter>
<filter id="filter2_f_207_2" x="1334.3" y="-522.7" width="1089.4" height="1123.4" filterUnits="userSpaceOnUse" color-interpolation-filters="sRGB">
<feFlood flood-opacity="0" result="BackgroundImageFix"/>
<feBlend mode="normal" in="SourceGraphic" in2="BackgroundImageFix" result="shape"/>
<feGaussianBlur stdDeviation="128.85" result="effect1_foregroundBlur_207_2"/>
</filter>
<linearGradient id="paint0_linear_207_2" x1="150" y1="-3.67409e-05" x2="1349.5" y2="1400.5" gradientUnits="userSpaceOnUse">
<stop stop-color="#E1FBFF"/>
<stop offset="1" stop-color="#DFD3FF"/>
</linearGradient>
<linearGradient id="paint1_linear_207_2" x1="529" y1="752" x2="529" y2="1360" gradientUnits="userSpaceOnUse">
<stop stop-color="#E4CFFF"/>
<stop offset="1" stop-color="#9277FF"/>
</linearGradient>
<linearGradient id="paint2_linear_207_2" x1="1128" y1="-388" x2="1128" y2="220" gradientUnits="userSpaceOnUse">
<stop stop-color="#E4CFFF"/>
<stop offset="1" stop-color="#77FFE7"/>
</linearGradient>
<linearGradient id="paint3_linear_207_2" x1="1879" y1="-265" x2="1879" y2="343" gradientUnits="userSpaceOnUse">
<stop stop-color="#E4CFFF"/>
<stop offset="1" stop-color="#77E7FF"/>
</linearGradient>
<clipPath id="clip0_207_2">
<rect width="1920" height="1080" fill="white"/>
</clipPath>
</defs>
</svg>
